<svg width="50" height="51" viewBox="0 0 50 51" fill="none" xmlns="http://www.w3.org/2000/svg">
<path d="M7.14062 7.26665C7.14062 5.37308 7.89284 3.55707 9.23179 2.21812C10.5707 0.879169 12.3868 0.126953 14.2803 0.126953C16.1739 0.126953 17.9899 0.879169 19.3288 2.21812C20.6678 3.55707 21.42 5.37308 21.42 7.26665C21.42 9.16022 20.6678 10.9762 19.3288 12.3152C17.9899 13.6541 16.1739 14.4063 14.2803 14.4063C12.3868 14.4063 10.5707 13.6541 9.23179 12.3152C7.89284 10.9762 7.14063 9.16022 7.14062 7.26665ZM14.2803 3.6968C13.3335 3.6968 12.4255 4.07291 11.7561 4.74239C11.0866 5.41186 10.7105 6.31987 10.7105 7.26665C10.7105 8.21343 11.0866 9.12144 11.7561 9.79091C12.4255 10.4604 13.3335 10.8365 14.2803 10.8365C15.2271 10.8365 16.1351 10.4604 16.8046 9.79091C17.4741 9.12144 17.8502 8.21343 17.8502 7.26665C17.8502 6.31987 17.4741 5.41186 16.8046 4.74239C16.1351 4.07291 15.2271 3.6968 14.2803 3.6968Z" fill="#F15D5B"/>
<path d="M31.3409 12.9219C30.593 12.3514 29.9651 11.6388 29.4935 10.8249C29.0219 10.011 28.7157 9.11201 28.5926 8.17945C28.4696 7.24689 28.532 6.2992 28.7763 5.39083C29.0206 4.48246 29.442 3.63133 30.0162 2.88632C30.5905 2.14132 31.3063 1.51714 32.1226 1.04965C32.9388 0.582158 33.8394 0.280569 34.7726 0.162212C35.7058 0.0438553 36.6531 0.111064 37.5602 0.359977C38.4674 0.608889 39.3163 1.0346 40.0584 1.61264C41.5195 2.78143 42.4634 4.47707 42.6871 6.33473C42.9107 8.19239 42.3961 10.0636 41.2541 11.5457C40.1121 13.0279 38.4339 14.0025 36.5806 14.2598C34.7273 14.5172 32.8471 14.0368 31.3444 12.9219H31.3409ZM35.6996 3.69744C34.7529 3.69744 33.8449 4.07354 33.1754 4.74302C32.5059 5.4125 32.1298 6.3205 32.1298 7.26728C32.1298 8.21407 32.5059 9.12207 33.1754 9.79155C33.8449 10.461 34.7529 10.8371 35.6996 10.8371C36.6464 10.8371 37.5544 10.461 38.2239 9.79155C38.8934 9.12207 39.2695 8.21407 39.2695 7.26728C39.2695 6.3205 38.8934 5.4125 38.2239 4.74302C37.5544 4.07354 36.6464 3.69744 35.6996 3.69744Z" fill="#F15D5B"/>
<path d="M5.35477 17.9766H14.8863C14.4936 19.0939 14.2794 20.297 14.2794 21.5464H5.35477C4.88138 21.5464 4.42738 21.7345 4.09264 22.0692C3.7579 22.4039 3.56985 22.8579 3.56985 23.3313C3.56985 26.2479 4.73005 28.4112 6.56138 29.882C7.40387 30.5603 8.41413 31.1065 9.55648 31.5063C8.7176 32.398 8.07114 33.4527 7.65732 34.6049C6.45905 34.1236 5.3371 33.4706 4.32666 32.6665C1.64213 30.5067 0 27.3153 0 23.3313C0 21.9112 0.564162 20.5492 1.56838 19.5449C2.57259 18.5407 3.9346 17.9766 5.35477 17.9766Z" fill="#F15D5B"/>
<path d="M18.8057 17.9771C17.8589 19.6179 17.6027 21.5676 18.0934 23.3972C18.5842 25.2269 19.7816 26.7867 21.4224 27.7335C23.0632 28.6803 25.0129 28.9365 26.8425 28.4458C28.6722 27.955 30.232 26.7576 31.1788 25.1168C32.1256 23.476 32.3818 21.5263 31.8911 19.6967C31.4003 17.867 30.2029 16.3072 28.5621 15.3604C26.9213 14.4136 24.9717 14.1574 23.142 14.6481C21.3123 15.1389 19.7525 16.3363 18.8057 17.9771ZM24.189 18.0663C24.7121 17.9482 25.255 17.949 25.7777 18.0688C26.3004 18.1885 26.7895 18.4242 27.2089 18.7583C27.6283 19.0924 27.9673 19.5164 28.2009 19.9991C28.4345 20.4817 28.5567 21.0107 28.5585 21.5469C28.5583 22.2186 28.3685 22.8766 28.011 23.4453C27.6536 24.0139 27.143 24.4702 26.5378 24.7617C25.9327 25.0532 25.2576 25.168 24.5901 25.093C23.9226 25.018 23.2898 24.7562 22.7645 24.3377C22.2391 23.9192 21.8425 23.361 21.6201 22.7272C21.3978 22.0934 21.3587 21.4097 21.5075 20.7547C21.6563 20.0997 21.9869 19.5 22.4612 19.0244C22.9355 18.5489 23.5344 18.2168 24.189 18.0663Z" fill="#F15D5B"/>
<path d="M43.4167 29.882C42.5742 30.5603 41.5639 31.1065 40.4216 31.5063C41.2592 32.3983 41.9044 33.453 42.3172 34.6049C43.5309 34.1087 44.6554 33.4626 45.6514 32.6665C48.3359 30.5067 49.9781 27.3153 49.9781 23.3313C49.9781 21.9112 49.4139 20.5492 48.4097 19.5449C47.4055 18.5407 46.0435 17.9766 44.6233 17.9766H35.0918C35.4845 19.0939 35.6987 20.297 35.6987 21.5464H44.6233C45.0967 21.5464 45.5507 21.7345 45.8854 22.0692C46.2202 22.4039 46.4082 22.8579 46.4082 23.3313C46.4082 26.2479 45.248 28.4112 43.4167 29.882Z" fill="#F15D5B"/>
<path d="M33.913 32.2559C35.3332 32.2559 36.6952 32.82 37.6994 33.8243C38.7036 34.8285 39.2678 36.1905 39.2678 37.6107C39.2678 41.5946 37.6292 44.786 34.9411 46.9458C32.2959 49.0699 28.7474 50.1051 24.9884 50.1051C21.2293 50.1051 17.6809 49.0699 15.0357 46.9458C12.3511 44.786 10.709 41.5946 10.709 37.6107C10.7071 36.9069 10.8443 36.2098 11.1128 35.5592C11.3812 34.9087 11.7756 34.3177 12.2732 33.8201C12.7708 33.3224 13.3618 32.9281 14.0124 32.6596C14.6629 32.3912 15.36 32.254 16.0638 32.2559H33.913ZM33.913 35.8257H16.0638C15.5904 35.8257 15.1364 36.0138 14.8016 36.3485C14.4669 36.6833 14.2789 37.1373 14.2789 37.6107C14.2789 40.5272 15.4391 42.6905 17.2704 44.1613C19.1481 45.6678 21.8469 46.5353 24.9884 46.5353C28.1299 46.5353 30.8287 45.6678 32.7064 44.1613C34.5377 42.6905 35.6979 40.5272 35.6979 37.6107C35.6979 37.1373 35.5099 36.6833 35.1751 36.3485C34.8404 36.0138 34.3864 35.8257 33.913 35.8257Z" fill="#F15D5B"/>
</svg>
