<svg width="54" height="56" viewBox="0 0 54 56" fill="none" xmlns="http://www.w3.org/2000/svg">
<path d="M40.7923 27.7383L50.6185 47.2383L41.0947 44.8573L36.3328 52.0002L28.5352 35.2454" stroke="#F15D5B" stroke-width="3" stroke-miterlimit="10"/>
<path d="M12.8262 27.7383L3 47.2383L12.5238 44.8573L17.2857 52.0002L25.0833 35.2454" stroke="#F15D5B" stroke-width="3" stroke-miterlimit="10"/>
<path d="M26.8092 35.3333C36.014 35.3333 43.4759 27.8714 43.4759 18.6667C43.4759 9.46192 36.014 2 26.8092 2C17.6045 2 10.1426 9.46192 10.1426 18.6667C10.1426 27.8714 17.6045 35.3333 26.8092 35.3333Z" stroke="#F15D5B" stroke-width="3" stroke-miterlimit="10" stroke-linecap="square"/>
<path d="M26.8088 23.4281C29.4387 23.4281 31.5707 21.2961 31.5707 18.6662C31.5707 16.0363 29.4387 13.9043 26.8088 13.9043C24.1789 13.9043 22.0469 16.0363 22.0469 18.6662C22.0469 21.2961 24.1789 23.4281 26.8088 23.4281Z" stroke="#F15D5B" stroke-width="3" stroke-miterlimit="10" stroke-linecap="square"/>
</svg>
